<?xml version="1.0" encoding="iso-8859-1"?>
<!-- Generator: Adobe Illustrator 19.0.0, SVG Export Plug-In . SVG Version: 6.00 Build 0)  -->
<svg version="1.1" id="Capa_1" xmlns="http://www.w3.org/2000/svg" xmlns:xlink="http://www.w3.org/1999/xlink" x="0px" y="0px"
	 viewBox="0 0 512 512" style="enable-background:new 0 0 512 512; fill:#fff;" xml:space="preserve">
<g>
	<g>
		<path d="M201.628,348.362c-1.86-1.86-4.43-2.92-7.07-2.92c-2.63,0-5.21,1.06-7.07,2.92c-1.86,1.87-2.93,4.44-2.93,7.08
			c0,2.63,1.07,5.21,2.93,7.07c1.86,1.86,4.44,2.93,7.07,2.93c2.64,0,5.21-1.07,7.07-2.93c1.87-1.86,2.93-4.44,2.93-7.07
			C204.558,352.803,203.498,350.233,201.628,348.362z"/>
	</g>
</g>
<g>
	<g>
		<path d="M497.338,58.523l-43.861-43.86c-19.551-19.551-51.36-19.55-70.91,0L256.142,141.087c-3.905,3.905-3.905,10.237,0,14.143
			c3.904,3.905,10.237,3.905,14.143,0l40.397-40.397l55.172,55.172L228.694,307.163c-3.905,3.905-3.905,10.237,0,14.144
			c1.953,1.953,4.512,2.929,7.071,2.929c2.559,0,5.119-0.976,7.071-2.929l137.159-137.158l17.171,17.171L146.109,452.376
			c-3.943-9.263-2.149-20.407,5.396-27.951c1.953-1.953,2.929-4.512,2.929-7.071s-0.976-5.119-2.929-7.071
			c-3.905-3.905-10.237-3.905-14.144,0c-9.909,9.909-26.033,9.909-35.943,0c-9.888-9.888-9.907-25.964-0.062-35.879
			c0.144-0.128,0.291-0.25,0.429-0.387l103.055-103.055c3.905-3.905,3.905-10.237,0-14.144c-3.905-3.906-10.237-3.905-14.144,0
			l-102.96,102.96c-0.155,0.137-0.313,0.269-0.462,0.417c-7.429,7.43-18.355,9.289-27.534,5.576l154.806-154.806
			c3.905-3.905,3.905-10.237,0-14.143c-3.904-3.906-10.237-3.904-14.143,0L36.823,360.403c-1.277,1.277-2.185,2.876-2.625,4.628
			L0.303,499.556c-0.86,3.413,0.137,7.026,2.626,9.515C4.828,510.969,7.382,512,10.001,512c0.813,0,1.634-0.099,2.443-0.303
			l134.523-33.895c1.751-0.441,3.351-1.349,4.628-2.625l345.742-345.742C516.888,109.883,516.888,78.073,497.338,58.523z
			 M23.788,488.213l9.649-38.301l28.65,28.65L23.788,488.213z M84.681,472.869L39.13,427.318l11.062-43.901
			c7.575,3.505,15.922,4.821,24.072,3.933c-1.439,13.222,2.897,26.96,13.012,37.075c10.115,10.113,23.851,14.455,37.075,13.012
			c-0.901,8.272,0.46,16.747,4.082,24.409L84.681,472.869z M411.311,187.176l-86.486-86.486l35.728-35.728l86.486,86.486
			L411.311,187.176z M483.195,115.291l-22.014,22.014l-86.486-86.486l22.014-22.014c11.753-11.753,30.873-11.752,42.625,0
			l43.861,43.861C494.947,84.417,494.947,103.539,483.195,115.291z"/>
	</g>
</g>
<g>
	<g>
		<path d="M242.84,168.534c-1.86-1.86-4.44-2.93-7.07-2.93c-2.64,0-5.21,1.07-7.07,2.93c-1.87,1.86-2.93,4.44-2.93,7.07
			s1.06,5.21,2.93,7.07c1.86,1.86,4.43,2.93,7.07,2.93c2.63,0,5.21-1.07,7.07-2.93c1.86-1.86,2.93-4.44,2.93-7.07
			S244.7,170.394,242.84,168.534z"/>
	</g>
</g>
<g>
</g>
<g>
</g>
<g>
</g>
<g>
</g>
<g>
</g>
<g>
</g>
<g>
</g>
<g>
</g>
<g>
</g>
<g>
</g>
<g>
</g>
<g>
</g>
<g>
</g>
<g>
</g>
<g>
</g>
</svg>
