<?xml version="1.0" encoding="iso-8859-1"?>
<!-- Generator: Adobe Illustrator 19.0.0, SVG Export Plug-In . SVG Version: 6.00 Build 0)  -->
<svg version="1.1" id="Capa_1" xmlns="http://www.w3.org/2000/svg" xmlns:xlink="http://www.w3.org/1999/xlink" x="0px" y="0px"
	 viewBox="0 0 480 480" style="enable-background:new 0 0 480 480; fill:#fff;" xml:space="preserve">
<g>
	<g>
		<path d="M477.969,234.681c-0.206-0.232-0.426-0.451-0.657-0.657l-72-64c-2.353-2.09-5.712-2.607-8.584-1.32
			c-2.875,1.289-4.726,4.145-4.728,7.296v24h-40c-4.418,0-8,3.582-8,8v64c0,4.418,3.582,8,8,8h40v24
			c0.002,3.151,1.853,6.007,4.728,7.296c1.027,0.468,2.143,0.708,3.272,0.704c1.959-0.002,3.849-0.722,5.312-2.024l72-64
			C480.612,243.039,480.907,237.982,477.969,234.681z M408,286.184V272c0-4.418-3.582-8-8-8h-40v-48h40c4.418,0,8-3.582,8-8v-14.184
			L460,240L408,286.184z"/>
	</g>
</g>
<g>
	<g>
		<path d="M320,200h-32c-4.418,0-8,3.582-8,8v64c0,4.418,3.582,8,8,8h32c4.418,0,8-3.582,8-8v-64C328,203.582,324.418,200,320,200z
			 M312,264h-16v-48h16V264z"/>
	</g>
</g>
<g>
	<g>
		<path d="M464,464V288h-16v176H256V16h192v176h16V8c0-4.418-3.582-8-8-8H24c-4.418,0-8,3.582-8,8v456H0v16h480v-16H464z M240,464
			H32V16h208V464z"/>
	</g>
</g>
<g>
	<g>
		<path d="M216,32H56c-4.418,0-8,3.582-8,8v400c0,4.418,3.582,8,8,8h160c4.418,0,8-3.582,8-8V40C224,35.582,220.418,32,216,32z
			 M208,432H64V48h144V432z"/>
	</g>
</g>
<g>
	<g>
		<rect x="176" y="192" width="16" height="96"/>
	</g>
</g>
<g>
	<g>
		<path d="M104,64c-13.255,0-24,10.745-24,24v72h16V88c0-4.418,3.582-8,8-8h16V64H104z"/>
	</g>
</g>
<g>
	<g>
		<rect x="80" y="176" width="16" height="16"/>
	</g>
</g>
<g>
</g>
<g>
</g>
<g>
</g>
<g>
</g>
<g>
</g>
<g>
</g>
<g>
</g>
<g>
</g>
<g>
</g>
<g>
</g>
<g>
</g>
<g>
</g>
<g>
</g>
<g>
</g>
<g>
</g>
</svg>
