<?xml version="1.0" encoding="iso-8859-1"?>
<!-- Generator: Adobe Illustrator 19.0.0, SVG Export Plug-In . SVG Version: 6.00 Build 0)  -->
<svg version="1.1" id="Capa_1" xmlns="http://www.w3.org/2000/svg" xmlns:xlink="http://www.w3.org/1999/xlink" x="0px" y="0px"
	 viewBox="0 0 512.017 512.017" style="enable-background:new 0 0 512.017 512.017;  fill:#fff;" xml:space="preserve">
<g>
	<g>
		<g>
			<path d="M501.35,298.675h-53.333v-53.333c0-17.673-14.327-32-32-32H266.684c-1.216,0-2.413,0.074-3.594,0.206l27.786-14.073
				c12.658-6.388,22.211-17.603,26.507-31.115c4.464-13.606,3.268-28.436-3.317-41.152l-15.381-29.907V32.009
				c0-17.673-14.327-32-32-32h-64H117.35h-64c-17.673,0-32,14.327-32,32v53.404l-9.28,14.329c-0.018,0.027-0.035,0.054-0.052,0.081
				c-19.379,30.014-14.622,68.652,9.332,93.172v116.347c0,5.891,4.776,10.667,10.667,10.667H213.35v-21.333H42.684v-89.697
				l99.712,63.862c1.712,1.098,3.705,1.68,5.739,1.675c3.618,0.003,6.992-1.828,8.96-4.864l2.33-3.599l83.759-42.422
				c-5.273,5.705-8.499,13.33-8.499,21.712v74.667h21.333v-32h21.333c0,2.396,0.764,57.147,64,82.129v24.538v10.667v53.333
				c0.014,12.009,3.995,23.087,10.699,32h-64.032c-32,0-32-16.053-32-21.333h-21.333c0,26.72,19.936,42.667,53.333,42.667h106.667
				h42.667h42.667c17.673,0,32-14.327,32-32V309.342C512.017,303.451,507.241,298.675,501.35,298.675z M190.16,21.428
				c-0.18,0.507-0.373,1.007-0.578,1.501c-0.016,0.039-0.03,0.078-0.046,0.117c-0.221,0.528-0.456,1.047-0.704,1.559
				c-0.086,0.178-0.181,0.351-0.27,0.527c-0.156,0.308-0.312,0.616-0.478,0.918c-0.149,0.272-0.307,0.539-0.464,0.806
				c-0.113,0.192-0.225,0.385-0.341,0.575c-0.19,0.308-0.385,0.612-0.585,0.913c-0.088,0.133-0.176,0.264-0.266,0.395
				c-0.23,0.336-0.465,0.668-0.707,0.994c-0.054,0.073-0.109,0.144-0.163,0.216c-2.124,2.811-4.699,5.261-7.621,7.24
				c-0.022,0.015-0.044,0.03-0.067,0.045c-0.409,0.275-0.824,0.542-1.246,0.799c-0.018,0.011-0.035,0.021-0.053,0.031
				c-1.715,1.039-3.537,1.92-5.443,2.626c-0.044,0.016-0.087,0.034-0.131,0.05c-0.482,0.176-0.97,0.342-1.463,0.495
				c-0.001,0-0.002,0.001-0.003,0.001c-3.006,0.935-6.202,1.438-9.515,1.438c-12.635,0-23.556-7.325-28.758-17.958
				c-0.033-0.068-0.069-0.133-0.101-0.201c-0.124-0.258-0.237-0.522-0.354-0.784c-0.111-0.249-0.225-0.495-0.33-0.748
				c-0.067-0.159-0.126-0.322-0.19-0.483c-0.14-0.352-0.278-0.705-0.406-1.065c-0.011-0.031-0.021-0.063-0.032-0.095h60.344
				C190.179,21.37,190.17,21.4,190.16,21.428z M149.404,62.995c28.866,5.862,57.018-12.787,62.88-41.654h32.379
				c-5.253,42.09-41.133,74.667-84.646,74.667S80.624,63.432,75.371,21.342h32.379C112.012,42.33,128.416,58.734,149.404,62.995z
				 M53.35,21.342h0.541c5.404,53.873,50.843,95.939,106.126,96c55.283-0.061,100.722-42.127,106.126-96h0.541
				c5.891,0,10.667,4.776,10.667,10.667v54.459l-127.22,64.5L42.684,82.151V32.009C42.684,26.117,47.459,21.342,53.35,21.342z
				 M22.588,152.041c-3.093-14.012-0.425-28.678,7.403-40.704l5.472-8.459l103.761,66.445l-34.836,53.833l-58.504-37.462
				C33.921,178.053,25.527,165.928,22.588,152.041z M122.354,234.66l34.836-53.833l22.625,14.488l-34.848,53.824L122.354,234.66z
				 M200.337,183.123l-29.373-18.812l109.586-55.502l14.581,28.149c3.975,7.672,4.698,16.621,2.005,24.832
				c-2.576,8.087-8.296,14.798-15.872,18.624l-98.821,50.078l21.093-32.585c0.011-0.016,0.021-0.033,0.032-0.049
				C206.745,192.897,205.298,186.3,200.337,183.123z M426.684,245.342v21.333H405.35v-32h10.667
				C421.908,234.675,426.684,239.451,426.684,245.342z M309.35,266.675v-32h32v32H309.35z M362.684,234.675h21.333v32h-21.333
				V234.675z M256.017,266.675v-21.333c0-5.891,4.776-10.667,10.667-10.667h21.333v32H256.017z M298.684,288.009h42.666v58.805
				C300.085,326.427,298.707,290.327,298.684,288.009z M480.017,490.675H437.35h-42.667c-17.673,0-32-14.327-32-32v-53.333v-10.667
				V288.009h64v181.333h21.333V320.009h42.667v21.333h-32v21.333h32v117.333C490.684,485.9,485.908,490.675,480.017,490.675z"/>
			<path d="M293.565,436.697l8.233,8.233l15.085-15.085l-11.925-11.925c2.817-7.207,4.384-15.041,4.392-23.244
				c0-35.346-28.654-64-64-64c-27.864,0-51.557,17.812-60.344,42.667h-28.645c-8.787-24.854-32.48-42.667-60.344-42.667
				c-35.346,0-64,28.654-64,64c0,8.177,1.55,15.988,4.346,23.177l-11.893,11.893l15.085,15.085l8.177-8.177
				c11.733,13.485,29.008,22.021,48.286,22.021c35.332-0.035,63.965-28.668,64-64h21.333c0,35.346,28.654,64,64,64
				C264.592,458.656,281.834,450.143,293.565,436.697z M96.017,352.009c15.79,0,29.566,8.584,36.944,21.333H59.073
				C66.451,360.593,80.227,352.009,96.017,352.009z M53.35,394.675h6.189l-5.788,5.788C53.495,398.569,53.35,396.64,53.35,394.675z
				 M96.017,437.342c-13.389,0-25.332-6.172-33.154-15.82l26.847-26.847h48.974C138.684,418.239,119.581,437.342,96.017,437.342z
				 M287.603,400.564l-5.889-5.889h6.303C288.017,396.674,287.869,398.638,287.603,400.564z M245.35,352.009
				c15.79,0,29.566,8.584,36.944,21.333h-73.889C215.784,360.593,229.56,352.009,245.35,352.009z M202.684,394.675h48.86
				l26.911,26.911c-7.823,9.612-19.744,15.756-33.104,15.756C221.786,437.342,202.684,418.239,202.684,394.675z"/>
		</g>
	</g>
</g>
<g>
</g>
<g>
</g>
<g>
</g>
<g>
</g>
<g>
</g>
<g>
</g>
<g>
</g>
<g>
</g>
<g>
</g>
<g>
</g>
<g>
</g>
<g>
</g>
<g>
</g>
<g>
</g>
<g>
</g>
</svg>
