<?xml version="1.0" encoding="iso-8859-1"?>
<!-- Generator: Adobe Illustrator 19.0.0, SVG Export Plug-In . SVG Version: 6.00 Build 0)  -->
<svg version="1.1" id="Capa_1" xmlns="http://www.w3.org/2000/svg" xmlns:xlink="http://www.w3.org/1999/xlink" x="0px" y="0px"
	 viewBox="0 0 511.998 511.998" style="enable-background:new 0 0 511.998 511.998;  fill:#fff;" xml:space="preserve">
<g>
	<g>
		<path d="M501.103,464.947h-16.224V326.868c0-5.522-4.477-9.997-9.997-9.997s-9.998,4.476-9.998,9.997v52.101H209.947V223.033
			c0-5.522-4.477-9.998-9.998-9.998s-9.997,4.476-9.997,9.998v241.914H46.988V198.913c3.978,0.846,8.098,1.3,12.324,1.3
			c20.476,0,38.557-10.452,49.188-26.301c10.63,15.85,28.711,26.301,49.187,26.301c20.476,0,38.557-10.452,49.188-26.301
			c10.63,15.85,28.712,26.301,49.188,26.301s38.557-10.452,49.188-26.301c10.63,15.85,28.712,26.301,49.188,26.301
			s38.556-10.452,49.187-26.301c10.63,15.85,28.712,26.301,49.188,26.301c4.136,0,8.172-0.43,12.07-1.241v63.358
			c0,5.522,4.477,9.997,9.998,9.997s9.997-4.476,9.997-9.997v-71.595c16.302-10.552,27.12-28.885,27.12-49.708
			c0-2.049-0.619-3.953-1.677-5.54L462.397,32.824c-1.644-3.519-5.176-5.769-9.06-5.769H59.185c-3.865,0-7.384,2.228-9.037,5.723
			L0.96,136.752c-0.917,1.939-1.173,4.086-0.787,6.13c0.619,19.945,11.143,37.429,26.819,47.689v274.375H10.768
			c-5.521,0-9.997,4.476-9.997,9.998c0,5.522,4.477,9.997,9.997,9.997H36.99h437.891h26.222c5.521,0,9.998-4.476,9.998-9.997
			C511.102,469.423,506.625,464.947,501.103,464.947z M452.814,180.218c-18.156,0-33.463-12.41-37.894-29.193h75.787
			C486.276,167.807,470.97,180.218,452.814,180.218z M413.843,47.051h33.129l39.203,83.979h-72.332V47.051z M354.439,180.219
			c-18.156,0-33.462-12.411-37.894-29.193h75.786C387.899,167.808,372.593,180.219,354.439,180.219z M315.393,47.051h78.455v83.979
			h-78.455V47.051z M256.063,180.219c-18.155,0-33.462-12.411-37.894-29.193h75.787
			C289.525,167.808,274.217,180.219,256.063,180.219z M216.946,47.051h78.454v83.979h-0.001h-78.453V47.051z M157.686,180.219
			c-18.154,0-33.461-12.411-37.893-29.193h75.786C191.148,167.808,175.842,180.219,157.686,180.219z M118.497,47.051h78.453v83.979
			h-78.453V47.051z M65.515,47.051h32.987v83.979H25.786L65.515,47.051z M21.418,151.026h75.787
			c-4.432,16.782-19.739,29.193-37.894,29.193C41.156,180.219,25.85,167.808,21.418,151.026z M464.884,464.947H209.947v-65.984
			h254.937V464.947z"/>
	</g>
</g>
<g>
	<g>
		<path d="M165.138,319.803c-1.861-1.86-4.429-2.929-7.068-2.929c-2.629,0-5.209,1.07-7.067,2.929c-1.86,1.86-2.93,4.429-2.93,7.068
			c0,2.629,1.07,5.209,2.93,7.068c1.859,1.859,4.438,2.929,7.067,2.929c2.63,0,5.209-1.07,7.068-2.929
			c1.859-1.86,2.929-4.439,2.929-7.068C168.067,324.232,166.998,321.663,165.138,319.803z"/>
	</g>
</g>
<g>
	<g>
		<path d="M346.256,241.724c-3.905-3.904-10.233-3.904-14.139,0l-67.722,67.722c-3.904,3.904-3.904,10.234,0,14.14
			c1.953,1.953,4.511,2.928,7.069,2.928c2.558,0,5.117-0.976,7.069-2.928l67.722-67.722
			C350.161,251.959,350.161,245.628,346.256,241.724z"/>
	</g>
</g>
<g>
	<g>
		<path d="M255.205,332.77c-1.859-1.859-4.438-2.919-7.067-2.919c-2.63,0-5.209,1.06-7.068,2.919
			c-1.86,1.87-2.929,4.439-2.929,7.068c0,2.639,1.069,5.209,2.929,7.068c1.86,1.87,4.438,2.929,7.068,2.929
			c2.629,0,5.209-1.06,7.067-2.929c1.86-1.859,2.93-4.429,2.93-7.068C258.136,337.209,257.066,334.629,255.205,332.77z"/>
	</g>
</g>
<g>
	<g>
		<path d="M429.464,232.659c-3.905-3.904-10.233-3.904-14.139,0l-68.248,68.248c-3.904,3.904-3.904,10.234,0,14.139
			c1.954,1.952,4.511,2.928,7.07,2.928c2.559,0,5.117-0.976,7.069-2.928l68.248-68.248
			C433.368,242.894,433.368,236.564,429.464,232.659z"/>
	</g>
</g>
<g>
	<g>
		<path d="M481.949,287.251c-1.859-1.859-4.438-2.929-7.067-2.929s-5.209,1.07-7.068,2.929c-1.86,1.86-2.929,4.429-2.929,7.068
			c0,2.629,1.069,5.209,2.929,7.068s4.439,2.929,7.068,2.929s5.209-1.07,7.067-2.929c1.859-1.859,2.93-4.439,2.93-7.068
			C484.879,291.69,483.81,289.111,481.949,287.251z"/>
	</g>
</g>
<g>
</g>
<g>
</g>
<g>
</g>
<g>
</g>
<g>
</g>
<g>
</g>
<g>
</g>
<g>
</g>
<g>
</g>
<g>
</g>
<g>
</g>
<g>
</g>
<g>
</g>
<g>
</g>
<g>
</g>
</svg>
