<?xml version="1.0" encoding="iso-8859-1"?>
<!-- Generator: Adobe Illustrator 19.0.0, SVG Export Plug-In . SVG Version: 6.00 Build 0)  -->
<svg version="1.1" id="Capa_1" xmlns="http://www.w3.org/2000/svg" xmlns:xlink="http://www.w3.org/1999/xlink" x="0px" y="0px"
	 viewBox="0 0 512 512" style="enable-background:new 0 0 512 512;" xml:space="preserve">
<rect y="152.529" style="fill:#EFEFEF;" width="512" height="323.43"/>
<rect y="49.822" style="fill:#FA7564;" width="512" height="102.71"/>
<g>
	<rect x="172.46" y="202.35" style="fill:#CECECE;" width="44.46" height="30.659"/>
	<rect x="233.77" y="202.35" style="fill:#CECECE;" width="44.46" height="30.659"/>
	<rect x="295.09" y="202.35" style="fill:#CECECE;" width="44.46" height="30.659"/>
	<rect x="356.4" y="202.35" style="fill:#CECECE;" width="44.46" height="30.659"/>
	<rect x="417.74" y="202.35" style="fill:#CECECE;" width="44.46" height="30.659"/>
	<rect x="49.823" y="250.63" style="fill:#CECECE;" width="44.45" height="30.659"/>
	<rect x="111.14" y="250.63" style="fill:#CECECE;" width="44.46" height="30.659"/>
	<rect x="172.46" y="250.63" style="fill:#CECECE;" width="44.46" height="30.659"/>
	<rect x="233.77" y="250.63" style="fill:#CECECE;" width="44.46" height="30.659"/>
	<rect x="295.09" y="250.63" style="fill:#CECECE;" width="44.46" height="30.659"/>
	<rect x="356.4" y="250.63" style="fill:#CECECE;" width="44.46" height="30.659"/>
	<rect x="417.74" y="250.63" style="fill:#CECECE;" width="44.46" height="30.659"/>
	<rect x="49.823" y="298.139" style="fill:#CECECE;" width="44.45" height="30.659"/>
	<rect x="111.14" y="298.139" style="fill:#CECECE;" width="44.46" height="30.659"/>
</g>
<rect x="172.46" y="298.139" style="fill:#DD4E4E;" width="44.46" height="30.659"/>
<g>
	<rect x="233.77" y="298.139" style="fill:#CECECE;" width="44.46" height="30.659"/>
	<rect x="295.09" y="298.139" style="fill:#CECECE;" width="44.46" height="30.659"/>
	<rect x="356.4" y="298.139" style="fill:#CECECE;" width="44.46" height="30.659"/>
	<rect x="417.74" y="298.139" style="fill:#CECECE;" width="44.46" height="30.659"/>
	<rect x="49.823" y="346.419" style="fill:#CECECE;" width="44.45" height="30.659"/>
	<rect x="111.14" y="346.419" style="fill:#CECECE;" width="44.46" height="30.659"/>
	<rect x="172.46" y="346.419" style="fill:#CECECE;" width="44.46" height="30.659"/>
	<rect x="233.77" y="346.419" style="fill:#CECECE;" width="44.46" height="30.659"/>
	<rect x="295.09" y="346.419" style="fill:#CECECE;" width="44.46" height="30.659"/>
	<rect x="356.4" y="346.419" style="fill:#CECECE;" width="44.46" height="30.659"/>
	<rect x="417.74" y="346.419" style="fill:#CECECE;" width="44.46" height="30.659"/>
	<rect x="49.823" y="394.699" style="fill:#CECECE;" width="44.45" height="30.659"/>
	<rect x="111.14" y="394.699" style="fill:#CECECE;" width="44.46" height="30.659"/>
	<rect x="172.46" y="394.699" style="fill:#CECECE;" width="44.46" height="30.659"/>
	<rect x="233.77" y="394.699" style="fill:#CECECE;" width="44.46" height="30.659"/>
</g>
<g>
	<path style="fill:#20262D;" d="M40.622,44.456c4.598,0,8.433,2.304,10.732,5.366h9.964c-3.067-7.665-11.494-13.798-20.695-13.798
		c-12.268,0-22.226,9.969-22.226,22.231s9.964,22.226,22.226,22.226v-8.433c-7.665,0-13.793-6.129-13.793-13.793
		C26.829,51.353,33.725,44.456,40.622,44.456z"/>
	<path style="fill:#20262D;" d="M95.043,44.456c4.598,0,8.433,2.304,10.732,5.366h9.964c-3.067-7.665-11.5-13.798-20.695-13.798
		c-12.268,0-22.226,9.969-22.226,22.231s9.964,22.226,22.226,22.226v-8.433c-7.665,0-13.793-6.129-13.793-13.793
		C81.249,51.353,87.378,44.456,95.043,44.456z"/>
	<path style="fill:#20262D;" d="M148.695,44.456c4.598,0,8.433,2.304,10.732,5.366h9.964c-3.067-7.665-11.5-13.798-20.695-13.798
		c-12.268,0-22.226,9.969-22.226,22.231s9.964,22.226,22.226,22.226v-8.433c-7.665,0-13.793-6.129-13.793-13.793
		C134.902,51.353,141.03,44.456,148.695,44.456z"/>
	<path style="fill:#20262D;" d="M203.116,44.456c4.598,0,8.428,2.304,10.732,5.366h9.964c-3.067-7.665-11.5-13.798-20.695-13.798
		c-12.268,0-22.226,9.969-22.226,22.231s9.964,22.226,22.226,22.226v-8.433c-7.665,0-13.798-6.129-13.798-13.793
		C189.317,51.353,195.451,44.456,203.116,44.456z"/>
	<path style="fill:#20262D;" d="M256.768,44.456c4.598,0,8.433,2.304,10.726,5.366h9.964c-3.062-7.665-11.5-13.798-20.695-13.798
		c-12.268,0-22.226,9.969-22.226,22.231s9.964,22.226,22.226,22.226v-8.433c-7.665,0-13.798-6.129-13.798-13.793
		C242.97,51.353,249.103,44.456,256.768,44.456z"/>
	<path style="fill:#20262D;" d="M311.183,44.456c4.593,0,8.428,2.304,10.726,5.366h9.969c-3.067-7.665-11.494-13.798-20.695-13.798
		c-12.268,0-22.231,9.969-22.231,22.231s9.964,22.226,22.231,22.226v-8.433c-7.665,0-13.793-6.129-13.793-13.793
		C297.39,51.353,303.519,44.456,311.183,44.456z"/>
	<path style="fill:#20262D;" d="M364.841,44.456c4.593,0,8.428,2.304,10.726,5.366h9.969c-3.072-7.665-11.494-13.798-20.695-13.798
		c-12.268,0-22.231,9.969-22.231,22.231s9.958,22.226,22.231,22.226v-8.433c-7.665,0-13.793-6.129-13.793-13.793
		C351.043,51.353,357.176,44.456,364.841,44.456z"/>
	<path style="fill:#20262D;" d="M418.488,44.456c4.593,0,8.428,2.304,10.726,5.366h9.969c-3.067-7.665-11.494-13.798-20.695-13.798
		c-12.268,0-22.231,9.969-22.231,22.231s9.964,22.226,22.231,22.226v-8.433c-7.665,0-13.793-6.129-13.793-13.793
		C404.695,51.353,410.824,44.456,418.488,44.456z"/>
	<path style="fill:#20262D;" d="M472.904,44.456c4.603,0,8.438,2.304,10.737,5.366h9.964c-3.072-7.665-11.5-13.798-20.7-13.798
		c-12.262,0-22.221,9.969-22.221,22.231s9.958,22.226,22.221,22.226v-8.433c-7.665,0-13.793-6.129-13.793-13.793
		C459.11,51.353,465.239,44.456,472.904,44.456z"/>
</g>
<polygon style="fill:#CECECE;" points="436.122,475.975 436.122,400.096 512,400.096 "/>
<g>
</g>
<g>
</g>
<g>
</g>
<g>
</g>
<g>
</g>
<g>
</g>
<g>
</g>
<g>
</g>
<g>
</g>
<g>
</g>
<g>
</g>
<g>
</g>
<g>
</g>
<g>
</g>
<g>
</g>
</svg>
