<?xml version="1.0" encoding="iso-8859-1"?>
<!-- Generator: Adobe Illustrator 19.0.0, SVG Export Plug-In . SVG Version: 6.00 Build 0)  -->
<svg version="1.1" id="Layer_1" xmlns="http://www.w3.org/2000/svg" xmlns:xlink="http://www.w3.org/1999/xlink" x="0px" y="0px"
	 viewBox="0 0 512 512" style="enable-background:new 0 0 512 512;" xml:space="preserve">
<polygon style="fill:#F2F2F2;" points="256.85,512 130.586,439.101 130.586,293.302 256.85,366.203 "/>
<polygon style="fill:#E6E5E5;" points="256.85,220.401 130.586,293.302 256.85,366.203 383.117,293.302 "/>
<polygon style="fill:#CCCBCA;" points="256.85,512 383.109,439.101 383.109,293.302 256.85,366.203 "/>
<polygon style="fill:#F15424;" points="383.109,293.302 256.85,220.401 256.85,74.604 383.109,147.502 "/>
<polygon style="fill:#242D3C;" points="383.109,1.702 256.85,74.604 383.109,147.502 509.384,74.604 "/>
<polygon style="fill:#FFCA40;" points="383.109,293.302 509.376,220.401 509.376,74.604 383.109,147.502 "/>
<g>
	<path style="fill:#242D3C;" d="M130.586,295.002c-0.292,0-0.589-0.079-0.852-0.228L3.469,221.873
		c-0.525-0.305-0.852-0.865-0.852-1.475V74.604c0-0.607,0.325-1.17,0.852-1.472c0.525-0.302,1.175-0.302,1.702,0l126.264,72.899
		c0.525,0.305,0.852,0.865,0.852,1.472v145.802c0,0.604-0.325,1.17-0.852,1.472C131.172,294.922,130.877,295.002,130.586,295.002z
		 M6.021,219.418l122.865,70.932V148.483L6.021,77.55V219.418z"/>
	<path style="fill:#242D3C;" d="M130.591,149.202c-0.292,0-0.586-0.077-0.85-0.228L3.469,76.076
		c-0.525-0.305-0.852-0.865-0.852-1.475c0-0.607,0.325-1.17,0.852-1.472L129.741,0.228c0.525-0.302,1.175-0.302,1.702,0
		l126.264,72.904c0.525,0.305,0.852,0.865,0.852,1.472c0,0.609-0.325,1.17-0.852,1.475l-126.264,72.896
		C131.18,149.125,130.883,149.202,130.591,149.202z M7.721,74.604l122.87,70.935l122.865-70.935L130.591,3.666L7.721,74.604z"/>
	<path style="fill:#242D3C;" d="M256.85,222.1c-0.289,0-0.581-0.072-0.85-0.228l-8.837-5.102c-0.814-0.471-1.093-1.51-0.622-2.324
		c0.466-0.814,1.508-1.088,2.322-0.622l8.837,5.105c0.814,0.471,1.093,1.51,0.622,2.324C258.01,221.798,257.436,222.1,256.85,222.1z
		"/>
	<path style="fill:#242D3C;" d="M232.499,208.041c-0.289,0-0.581-0.072-0.852-0.228l-15.511-8.957
		c-0.814-0.471-1.093-1.51-0.622-2.324c0.468-0.817,1.51-1.088,2.322-0.625l15.511,8.957c0.814,0.471,1.093,1.51,0.622,2.324
		C233.656,207.736,233.083,208.041,232.499,208.041z M201.472,190.129c-0.289,0-0.581-0.072-0.85-0.228l-15.511-8.957
		c-0.814-0.471-1.093-1.51-0.622-2.324c0.468-0.817,1.51-1.091,2.322-0.625l15.511,8.957c0.814,0.471,1.093,1.51,0.622,2.324
		C202.632,189.824,202.056,190.129,201.472,190.129z M170.45,172.216c-0.289,0-0.581-0.074-0.852-0.228l-15.514-8.957
		c-0.814-0.471-1.093-1.51-0.622-2.324c0.466-0.812,1.508-1.091,2.322-0.622l15.516,8.957c0.814,0.471,1.093,1.51,0.622,2.324
		C171.607,171.909,171.034,172.216,170.45,172.216z"/>
	<path style="fill:#242D3C;" d="M139.423,154.301c-0.289,0-0.584-0.074-0.852-0.228l-7.987-4.613l-7.987,4.613
		c-0.814,0.466-1.856,0.192-2.322-0.625c-0.474-0.814-0.192-1.853,0.622-2.324l8.837-5.102c0.525-0.302,1.175-0.302,1.702,0
		l8.837,5.102c0.814,0.471,1.093,1.51,0.622,2.324C140.582,153.999,140.006,154.301,139.423,154.301z"/>
	<path style="fill:#242D3C;" d="M28.667,208.041c-0.584,0-1.16-0.305-1.472-0.85c-0.474-0.814-0.192-1.853,0.622-2.324l15.516-8.957
		c0.809-0.468,1.859-0.197,2.322,0.625c0.471,0.814,0.192,1.853-0.622,2.324l-15.516,8.957
		C29.248,207.969,28.959,208.041,28.667,208.041z M59.694,190.131c-0.586,0-1.16-0.305-1.472-0.852
		c-0.471-0.814-0.192-1.853,0.622-2.324l15.511-8.957c0.812-0.468,1.859-0.197,2.322,0.622c0.474,0.814,0.192,1.853-0.622,2.324
		l-15.511,8.957C60.275,190.057,59.983,190.131,59.694,190.131z M90.721,172.216c-0.586,0-1.16-0.305-1.472-0.852
		c-0.471-0.814-0.192-1.853,0.622-2.324l15.514-8.957c0.806-0.474,1.853-0.195,2.322,0.622c0.471,0.814,0.192,1.853-0.622,2.324
		l-15.514,8.957C91.302,172.142,91.011,172.216,90.721,172.216z"/>
	<path style="fill:#242D3C;" d="M4.319,222.1c-0.586,0-1.16-0.305-1.472-0.85c-0.474-0.814-0.192-1.853,0.622-2.324l8.837-5.105
		c0.809-0.471,1.853-0.192,2.322,0.622c0.474,0.814,0.195,1.856-0.622,2.324l-8.835,5.105C4.9,222.029,4.608,222.1,4.319,222.1z"/>
	<path style="fill:#242D3C;" d="M130.586,295.002c-0.292,0-0.589-0.079-0.852-0.228c-0.525-0.302-0.85-0.868-0.85-1.472v-145.8
		c0-0.607,0.325-1.17,0.85-1.472L256,73.129c0.525-0.302,1.175-0.302,1.702,0c0.525,0.305,0.85,0.865,0.85,1.472v145.797
		c0,0.609-0.325,1.17-0.85,1.475l-126.267,72.901C131.172,294.922,130.877,295.002,130.586,295.002z M132.285,148.483V290.35
		l122.865-70.932V77.55L132.285,148.483z"/>
	<path style="fill:#242D3C;" d="M130.591,13.606c-0.94,0-1.702-0.76-1.702-1.7V1.702C128.891,0.76,129.651,0,130.591,0
		c0.94,0,1.702,0.76,1.702,1.702v10.207C132.293,12.849,131.53,13.606,130.591,13.606z"/>
	<path style="fill:#242D3C;" d="M130.586,121.083L130.586,121.083c-0.94,0-1.702-0.763-1.702-1.7l0.003-17.912
		c0-0.94,0.76-1.702,1.702-1.702l0,0c0.94,0,1.7,0.763,1.7,1.702l-0.003,17.912C132.285,120.323,131.525,121.083,130.586,121.083z
		 M130.588,85.258c-0.942,0-1.702-0.76-1.702-1.702V65.644c0-0.942,0.76-1.702,1.702-1.702c0.94,0,1.7,0.76,1.7,1.702v17.912
		C132.288,84.495,131.528,85.258,130.588,85.258z M130.591,49.434c-0.94,0-1.702-0.76-1.702-1.702V29.819
		c0-0.94,0.76-1.702,1.702-1.702s1.702,0.76,1.702,1.702v17.912C132.293,48.671,131.53,49.434,130.591,49.434z"/>
	<path style="fill:#242D3C;" d="M130.586,149.202c-0.94,0-1.702-0.76-1.702-1.702v-10.204c0-0.942,0.76-1.702,1.702-1.702
		s1.702,0.76,1.702,1.702V147.5C132.285,148.442,131.525,149.202,130.586,149.202z"/>
</g>
<g>
</g>
<g>
</g>
<g>
</g>
<g>
</g>
<g>
</g>
<g>
</g>
<g>
</g>
<g>
</g>
<g>
</g>
<g>
</g>
<g>
</g>
<g>
</g>
<g>
</g>
<g>
</g>
<g>
</g>
</svg>
