<?xml version="1.0" encoding="iso-8859-1"?>
<!-- Generator: Adobe Illustrator 19.0.0, SVG Export Plug-In . SVG Version: 6.00 Build 0)  -->
<svg version="1.1" id="Capa_1" xmlns="http://www.w3.org/2000/svg" xmlns:xlink="http://www.w3.org/1999/xlink" x="0px" y="0px"
	 viewBox="0 0 511.999 511.999" style="enable-background:new 0 0 511.999 511.999;" xml:space="preserve">
<path style="fill:#5BDDFC;" d="M441.232,142.234l-89.235-25.029c-2.298-0.645-4.755-0.397-6.879,0.692l-12.536,6.433l-82.781,42.48
	l-82.922,42.552c-2.123,1.09-4.581,1.337-6.878,0.692l-84.122-23.595c-6.037-1.693-12.023,2.844-12.023,9.115v281.929
	c0,4.244,2.824,7.969,6.91,9.115l89.235,25.029c2.298,0.645,4.755,0.397,6.878-0.692l178.24-91.465
	c2.124-1.09,4.581-1.337,6.879-0.692l84.122,23.595c6.037,1.693,12.023-2.845,12.023-9.115v-281.93
	C448.142,147.105,445.318,143.38,441.232,142.234z"/>
<g>
	<path style="fill:#00C3FF;" d="M84.46,188.866l-8.582-2.407c-6.037-1.693-12.023,2.844-12.023,9.115v281.929
		c0,4.244,2.824,7.969,6.91,9.115l13.695,3.841V188.866z"/>
	<path style="fill:#00C3FF;" d="M345.118,117.897l-12.536,6.433l-82.781,42.48l-82.922,42.552c-1.72,0.884-2.564,0.803-3.595,1.009
		v301.592c1.206-0.093,2.453-0.422,3.595-1.008l178.24-91.465c0.749-0.384,1.737-0.728,2.679-0.894V117.003
		C346.83,117.174,345.833,117.53,345.118,117.897z"/>
</g>
<path style="fill:#EFC689;" d="M441.232,142.234l-89.235-25.029c-2.298-0.645-4.755-0.397-6.879,0.692l-12.536,6.433l-82.781,42.48
	l-82.922,42.552c-2.123,1.09-4.581,1.337-6.878,0.692l-84.122-23.595c-6.037-1.693-12.023,2.844-12.023,9.115v151.115
	c10.48,5.563,22.346,9.458,35.51,11.632c15.296,2.526,22.845,11.41,35.949,28.208c16.186,20.749,38.34,49.172,84.907,47.177
	l0.634-0.027c35.804-1.53,56.781-1.767,77.252,9.934l47.011-24.124c2.124-1.09,4.581-1.337,6.879-0.692l84.122,23.595
	c6.037,1.693,12.023-2.845,12.023-9.115V151.348C448.142,147.105,445.318,143.38,441.232,142.234z"/>
<g>
	<path style="fill:#E2B77F;" d="M84.46,188.866l-8.582-2.407c-6.037-1.693-12.023,2.844-12.023,9.115v151.115
		c6.361,3.377,13.241,6.129,20.605,8.265V188.866z"/>
	<path style="fill:#E2B77F;" d="M347.797,117.003c-0.934,0.165-1.927,0.508-2.679,0.894l-12.536,6.433l-82.781,42.48l-82.922,42.552
		c-0.239,0.123-1.522,0.683-1.747,0.683c-0.713,0.202-1.592,0.326-1.848,0.326v205.983c13.808,10.648,31.816,18.43,56.938,17.353
		l0.634-0.027c35.804-1.53,56.781-1.767,77.252,9.934l47.011-24.124c0.85-0.436,1.754-0.731,2.679-0.894L347.797,117.003
		L347.797,117.003z"/>
</g>
<path style="fill:#FCD592;" d="M441.232,142.234l-89.235-25.029c-2.298-0.645-4.755-0.397-6.879,0.692l-12.536,6.433l-82.781,42.48
	l-82.922,42.552c-2.123,1.09-4.581,1.337-6.878,0.692l-84.122-23.595c-6.037-1.693-12.023,2.844-12.023,9.115v113.302
	c8.675,8.468,21.518,15.809,40.547,18.952c58.405,9.646,55.775,77.51,114.499,75c42.126-1.8,75.239-3.366,110.368,24.795
	l15.849-8.133c2.124-1.09,4.581-1.337,6.879-0.692l84.122,23.595c6.037,1.693,12.023-2.845,12.023-9.115v-281.93
	C448.142,147.105,445.318,143.38,441.232,142.234z"/>
<g>
	<path style="fill:#EFC689;" d="M84.46,188.866l-8.582-2.407c-6.037-1.693-12.023,2.844-12.023,9.115v113.302
		c5.212,5.088,11.945,9.761,20.605,13.369V188.866z"/>
	<path style="fill:#EFC689;" d="M347.797,117.003c-0.934,0.165-1.927,0.508-2.679,0.894l-12.536,6.433l-82.781,42.48l-82.922,42.552
		c-0.239,0.123-1.522,0.683-1.747,0.683c-0.713,0.202-1.592,0.326-1.848,0.326v161.74c13.429,16.965,27.48,31.92,55.617,30.717
		c42.126-1.8,75.239-3.366,110.368,24.795l15.849-8.133c0.85-0.436,1.754-0.731,2.679-0.894V117.003L347.797,117.003z"/>
</g>
<path style="fill:#E4EAF8;" d="M283.462,267.378l11.53-11.53c3.018-3.017,3.018-7.91,0-10.927c-3.017-3.017-7.91-3.017-10.927,0
	l-11.53,11.53l-11.53-11.53c-3.017-3.017-7.91-3.017-10.927,0c-3.018,3.017-3.018,7.91,0,10.927l11.53,11.53l-11.53,11.53
	c-3.018,3.017-3.018,7.91,0,10.927c1.509,1.509,3.486,2.263,5.464,2.263s3.955-0.755,5.464-2.263l11.53-11.53l11.53,11.53
	c1.509,1.509,3.486,2.263,5.464,2.263s3.955-0.755,5.464-2.263c3.018-3.017,3.018-7.91,0-10.927L283.462,267.378z"/>
<path style="fill:#FF5050;" d="M268.906,0.084c-39.462,1.819-71.41,33.985-72.983,73.457c-1.134,28.475,13.274,53.662,35.423,67.797
	c3.685,2.352,6.78,5.518,8.987,9.29l29.284,50.05c1.305,2.231,4.53,2.231,5.836,0l29.12-49.77c2.285-3.906,5.467-7.209,9.277-9.651
	c21.263-13.627,35.359-37.454,35.359-64.584C349.208,33.125,312.902-1.944,268.906,0.084z M272.534,105.823
	c-16.099,0-29.149-13.05-29.149-29.149s13.05-29.149,29.149-29.149c16.098,0,29.149,13.05,29.149,29.149
	C301.683,92.772,288.633,105.823,272.534,105.823z"/>
<path style="fill:#E04B4B;" d="M260.938,150.629c-2.207-3.773-5.302-6.939-8.987-9.29c-22.149-14.135-36.557-39.322-35.423-67.797
	c1.482-37.204,29.952-67.905,66.261-72.836c-4.517-0.604-9.152-0.84-13.883-0.622c-39.462,1.819-71.41,33.985-72.983,73.457
	c-1.134,28.475,13.274,53.662,35.423,67.797c3.685,2.352,6.78,5.518,8.987,9.29l29.284,50.05c1.305,2.231,4.53,2.231,5.836,0
	l7.385-12.621L260.938,150.629z"/>
<g>
</g>
<g>
</g>
<g>
</g>
<g>
</g>
<g>
</g>
<g>
</g>
<g>
</g>
<g>
</g>
<g>
</g>
<g>
</g>
<g>
</g>
<g>
</g>
<g>
</g>
<g>
</g>
<g>
</g>
</svg>
