<?xml version="1.0" encoding="iso-8859-1"?>
<!-- Generator: Adobe Illustrator 19.0.0, SVG Export Plug-In . SVG Version: 6.00 Build 0)  -->
<svg version="1.1" id="Layer_1" xmlns="http://www.w3.org/2000/svg" xmlns:xlink="http://www.w3.org/1999/xlink" x="0px" y="0px"
	 viewBox="0 0 512 512" style="enable-background:new 0 0 512 512;" xml:space="preserve">
<path style="fill:#FFCA40;" d="M403.523,160.942c0,81.51-66.061,147.533-147.548,147.533c-81.462,0-147.497-66.022-147.497-147.533
	c0-81.434,66.035-147.528,147.497-147.528C337.462,13.414,403.523,79.508,403.523,160.942z"/>
<path style="fill:#FFBB33;" d="M362.186,160.942c0,58.673-47.549,106.199-106.204,106.199c-58.637,0-106.173-47.526-106.173-106.199
	c0-58.614,47.534-106.191,106.173-106.191C314.637,54.751,362.186,102.326,362.186,160.942z"/>
<rect x="203.597" y="298.931" style="fill:#FFCA40;" width="104.773" height="16.781"/>
<path style="fill:#FFFFFF;" d="M332.715,169.446v-17.014H319.27c-0.724-5.512-2.173-10.78-4.201-15.752l11.607-6.717l-8.507-14.758
	l-11.63,6.743c-3.341-4.337-7.204-8.202-11.51-11.543l6.712-11.658l-14.774-8.499l-6.705,11.622
	c-4.974-2.035-10.255-3.464-15.764-4.196V84.219h-17.004v13.455c-5.517,0.732-10.793,2.163-15.757,4.196l-6.715-11.622
	l-14.766,8.499l6.738,11.658c-4.329,3.341-8.195,7.206-11.533,11.543l-11.64-6.743l-8.509,14.758l11.612,6.717
	c-2.028,4.972-3.453,10.24-4.198,15.752h-13.445v17.014h13.445c0.745,5.522,2.173,10.79,4.201,15.775l-11.615,6.7l8.509,14.761
	l11.64-6.743c3.348,4.337,7.219,8.2,11.535,11.538l-6.738,11.663l14.764,8.492l6.715-11.628c4.969,2.035,10.24,3.461,15.759,4.209
	v13.448h17.001v-13.443c5.509-0.753,10.783-2.179,15.757-4.209l6.712,11.622l14.774-8.492l-6.72-11.663
	c4.314-3.351,8.177-7.209,11.525-11.538l11.622,6.743l8.527-14.761l-11.628-6.71c2.028-4.974,3.474-10.245,4.206-15.764H332.715z
	 M256.003,201.37c-22.344,0-40.433-18.092-40.433-40.422c0-22.346,18.089-40.438,40.433-40.438
	c22.341,0,40.425,18.092,40.425,40.438C296.428,183.278,278.344,201.37,256.003,201.37z"/>
<rect x="192.614" y="315.699" style="fill:#3E4959;" width="126.694" height="52.664"/>
<polygon style="fill:#D9D8D7;" points="192.612,448.65 255.962,512 319.306,448.65 "/>
<polygon style="fill:#242D3C;" points="224.287,480.325 255.962,512 287.631,480.325 "/>
<rect x="192.614" y="368.358" style="fill:#21D8DE;" width="42.23" height="80.282"/>
<rect x="234.829" y="368.358" style="fill:#16C6CC;" width="42.232" height="80.282"/>
<rect x="277.069" y="368.358" style="fill:#06B2B8;" width="42.232" height="80.282"/>
<g>
	<path style="fill:#242D3C;" d="M310.984,315.702h-5.212V297.07l1.679-0.643c55.905-21.24,93.466-75.689,93.466-135.485
		c0-79.91-65.019-144.922-144.94-144.922c-79.892,0-144.891,65.011-144.891,144.922c0,59.804,37.555,114.258,93.445,135.493
		l1.682,0.64v18.627h-5.215v-15.043c-56.975-22.446-95.127-78.364-95.127-139.72c0-82.788,67.338-150.134,150.106-150.134
		c82.798,0,150.154,67.348,150.154,150.134c0,61.348-38.157,117.261-95.148,139.715L310.984,315.702L310.984,315.702z"/>
	<rect x="187.75" y="313.088" style="fill:#242D3C;" width="136.499" height="5.212"/>
	<rect x="187.75" y="330.65" style="fill:#242D3C;" width="136.499" height="5.212"/>
	<rect x="187.75" y="348.186" style="fill:#242D3C;" width="136.499" height="5.212"/>
	<rect x="187.75" y="365.722" style="fill:#242D3C;" width="136.499" height="5.215"/>
	<rect x="108.467" y="10.842" style="fill:#242D3C;" width="295.04" height="5.215"/>
</g>
<g>
	<rect x="245.171" y="2.609" style="fill:#FFFFFF;" width="21.686" height="21.683"/>
	<rect x="392.678" y="150.134" style="fill:#FFFFFF;" width="21.691" height="21.686"/>
	<rect x="97.638" y="150.134" style="fill:#FFFFFF;" width="21.686" height="21.686"/>
</g>
<g>
	<path style="fill:#242D3C;" d="M269.45,26.898h-26.9V0h26.9L269.45,26.898L269.45,26.898z M247.764,21.683h16.471V5.215h-16.471
		V21.683z"/>
	<path style="fill:#242D3C;" d="M416.973,174.426h-26.906v-26.898h26.906V174.426z M395.279,169.213h16.479v-16.471h-16.479V169.213
		z"/>
	<path style="fill:#242D3C;" d="M121.928,174.426h-26.9v-26.898h26.9V174.426z M100.242,169.213h16.471v-16.471h-16.471
		C100.242,152.742,100.242,169.213,100.242,169.213z"/>
	<circle style="fill:#242D3C;" cx="108.467" cy="13.448" r="10.842"/>
	<circle style="fill:#242D3C;" cx="403.507" cy="13.448" r="10.844"/>
</g>
<g>
</g>
<g>
</g>
<g>
</g>
<g>
</g>
<g>
</g>
<g>
</g>
<g>
</g>
<g>
</g>
<g>
</g>
<g>
</g>
<g>
</g>
<g>
</g>
<g>
</g>
<g>
</g>
<g>
</g>
</svg>
