<?xml version="1.0" encoding="iso-8859-1"?>
<!-- Generator: Adobe Illustrator 19.0.0, SVG Export Plug-In . SVG Version: 6.00 Build 0)  -->
<svg version="1.1" id="Layer_1" xmlns="http://www.w3.org/2000/svg" xmlns:xlink="http://www.w3.org/1999/xlink" x="0px" y="0px"
	 viewBox="0 0 512.003 512.003" style="enable-background:new 0 0 512.003 512.003;" xml:space="preserve">
<path style="fill:#FFCA40;" d="M304.343,449.155H512V241.492L304.343,449.155z M379.284,418.12L480.97,316.431V418.12H379.284z"/>
<g>
	<rect x="506.445" y="437.427" style="fill:#242D3C;" width="5.558" height="2.706"/>
	<rect x="506.445" y="427.034" style="fill:#242D3C;" width="5.558" height="2.706"/>
	<rect x="506.445" y="416.64" style="fill:#242D3C;" width="5.558" height="2.706"/>
	<rect x="506.445" y="406.272" style="fill:#242D3C;" width="5.558" height="2.706"/>
	<rect x="506.445" y="395.878" style="fill:#242D3C;" width="5.558" height="2.706"/>
	<rect x="506.445" y="385.51" style="fill:#242D3C;" width="5.558" height="2.706"/>
	<rect x="506.445" y="375.117" style="fill:#242D3C;" width="5.558" height="2.703"/>
	<rect x="506.445" y="364.749" style="fill:#242D3C;" width="5.558" height="2.703"/>
	<rect x="506.445" y="354.355" style="fill:#242D3C;" width="5.558" height="2.703"/>
	<rect x="506.445" y="343.962" style="fill:#242D3C;" width="5.558" height="2.706"/>
	<rect x="506.445" y="333.594" style="fill:#242D3C;" width="5.558" height="2.706"/>
	<rect x="506.445" y="323.2" style="fill:#242D3C;" width="5.558" height="2.706"/>
	<rect x="506.445" y="312.806" style="fill:#242D3C;" width="5.558" height="2.706"/>
	<rect x="506.445" y="302.438" style="fill:#242D3C;" width="5.558" height="2.706"/>
	<rect x="506.445" y="292.045" style="fill:#242D3C;" width="5.558" height="2.706"/>
	<rect x="506.445" y="281.677" style="fill:#242D3C;" width="5.558" height="2.706"/>
	<rect x="506.445" y="271.283" style="fill:#242D3C;" width="5.558" height="2.706"/>
	<rect x="506.445" y="260.915" style="fill:#242D3C;" width="5.558" height="2.706"/>
	<rect x="506.445" y="250.522" style="fill:#242D3C;" width="5.558" height="2.703"/>
</g>
<path style="fill:#F2F2F2;" d="M76.068,393.016h348.096c17.503,0,31.695-14.203,31.695-31.688V125.75H76.068V393.016z"/>
<path style="fill:#242D3C;" d="M455.857,94.054c0-17.48-14.193-31.688-31.695-31.688v267.269c17.503,0,31.695,14.198,31.695,31.695
	V94.054z"/>
<rect x="143.642" y="332.058" style="fill:#16C6CC;" width="57.021" height="29.371"/>
<g>
	<rect x="212.762" y="332.058" style="fill:#242D3C;" width="141.798" height="4.055"/>
	<rect x="212.762" y="344.704" style="fill:#242D3C;" width="141.798" height="4.058"/>
	<rect x="212.762" y="357.376" style="fill:#242D3C;" width="70.904" height="4.058"/>
</g>
<rect x="275.405" y="214.4" style="fill:#16C6CC;" width="20.285" height="43.981"/>
<path style="fill:#F15424;" d="M208.033,211.884c-13.524,0-24.517,10.993-24.517,24.517c0,13.517,10.993,24.515,24.517,24.515
	c13.512,0,24.517-10.998,24.517-24.515C232.548,222.876,221.545,211.884,208.033,211.884z"/>
<g>
	<path style="fill:#242D3C;" d="M297.723,260.413h-24.34v-48.028h24.34V260.413z M277.44,256.356h16.228v-39.913H277.44V256.356z"/>
	<path style="fill:#242D3C;" d="M356.585,272.253h-24.353v-24.348h24.353V272.253z M336.289,268.196h16.238v-16.233h-16.238V268.196
		z"/>
	<path style="fill:#242D3C;" d="M356.585,224.896h-24.353v-24.348h24.353V224.896z M336.289,220.838h16.238v-16.233h-16.238V220.838
		z"/>
	<path style="fill:#242D3C;" d="M272.399,315.459h-24.356v-24.353h24.356V315.459z M252.101,311.401h16.241v-16.238h-16.241V311.401
		z"/>
	<path style="fill:#242D3C;" d="M237.601,315.459h-24.358v-24.353h24.358V315.459z M217.3,311.401h16.243v-16.238H217.3V311.401z"/>
	<path style="fill:#242D3C;" d="M202.801,315.459H178.45v-24.353h24.351V315.459z M182.505,311.401h16.238v-16.238h-16.238V311.401z
		"/>
	<path style="fill:#242D3C;" d="M168.005,315.459h-24.358v-24.353h24.358V315.459z M147.704,311.401h16.243v-16.238h-16.243V311.401
		z"/>
	<path style="fill:#242D3C;" d="M272.399,181.688h-24.356v-24.351h24.356V181.688z M252.101,177.633h16.241v-16.238h-16.241V177.633
		z"/>
	<path style="fill:#242D3C;" d="M237.601,181.688h-24.358v-24.351h24.358V181.688z M217.3,177.633h16.243v-16.238H217.3V177.633z"/>
	<path style="fill:#242D3C;" d="M202.801,181.688H178.45v-24.351h24.351V181.688z M182.505,177.633h16.238v-16.238h-16.238V177.633z
		"/>
	<path style="fill:#242D3C;" d="M168.005,181.688h-24.358v-24.351h24.358V181.688z M147.704,177.633h16.243v-16.238h-16.243V177.633
		z"/>
	<path style="fill:#242D3C;" d="M208.033,262.945c-14.638,0-26.547-11.907-26.547-26.545c0-14.638,11.909-26.545,26.547-26.545
		c14.638,0,26.545,11.907,26.545,26.545C234.578,251.039,222.669,262.945,208.033,262.945z M208.033,213.914
		c-12.401,0-22.49,10.086-22.49,22.487s10.089,22.487,22.49,22.487c12.398,0,22.487-10.086,22.487-22.487
		C230.52,224,220.431,213.914,208.033,213.914z"/>
	<rect x="188.595" y="179.661" style="fill:#242D3C;" width="4.055" height="16.102"/>
	<rect x="223.386" y="179.661" style="fill:#242D3C;" width="4.058" height="16.102"/>
	<rect x="206.003" y="195.763" style="fill:#242D3C;" width="4.058" height="16.11"/>
	<polygon style="fill:#242D3C;" points="262.252,197.801 153.802,197.801 153.797,179.671 157.855,179.671 157.857,193.743 
		258.194,193.743 258.194,179.671 262.252,179.671 	"/>
	<rect x="223.411" y="277.018" style="fill:#242D3C;" width="4.058" height="16.105"/>
	<rect x="188.595" y="277.018" style="fill:#242D3C;" width="4.058" height="16.105"/>
	<rect x="206.003" y="260.915" style="fill:#242D3C;" width="4.058" height="16.108"/>
	<polygon style="fill:#242D3C;" points="262.252,293.128 258.194,293.128 258.194,279.05 157.857,279.05 157.857,293.128 
		153.802,293.128 153.802,274.993 262.252,274.993 	"/>
	<rect x="232.55" y="234.368" style="fill:#242D3C;" width="42.862" height="4.055"/>
	<polygon style="fill:#242D3C;" points="334.262,262.106 312.952,262.106 312.952,210.696 334.262,210.696 334.262,214.753 
		317.01,214.753 317.01,258.048 334.262,258.048 	"/>
	<rect x="295.706" y="234.368" style="fill:#242D3C;" width="19.284" height="4.055"/>
</g>
<path style="fill:#CCCBCA;" d="M144.812,393.014c0,2.202-0.832,4.396-2.511,6.065c-1.674,1.679-3.868,2.514-6.062,2.514h-22.316
	V384.44h22.316c2.194,0,4.388,0.829,6.062,2.509C143.982,388.623,144.812,390.82,144.812,393.014L144.812,393.014z"/>
<circle style="fill:#D9D8D7;" cx="72.748" cy="393.011" r="56.627"/>
<path style="fill:#FF6D3B;" d="M115.651,393.014c0,23.693-19.21,42.9-42.903,42.9c-23.695,0-42.893-19.208-42.893-42.9
	c0-23.685,19.2-42.898,42.893-42.898C96.44,350.116,115.651,369.329,115.651,393.014z"/>
<path style="fill:#E64717;" d="M39.045,402.204c0-23.688,19.2-42.9,42.893-42.9c9.5,0,18.25,3.126,25.357,8.356
	c-7.805-10.621-20.355-17.546-34.55-17.546c-23.695,0-42.893,19.213-42.893,42.898c0,14.198,6.922,26.742,17.544,34.55
	C42.171,420.452,39.045,411.704,39.045,402.204z"/>
<rect x="374.886" y="89.677" style="fill:#FFCA40;" width="16.394" height="224.256"/>
<polygon style="fill:#D9D8D7;" points="374.884,89.679 383.078,62.364 391.281,89.679 "/>
<polygon style="fill:#242D3C;" points="387.174,76.019 383.078,62.364 378.988,76.019 "/>
<rect x="374.886" y="313.933" style="fill:#D9D8D7;" width="16.394" height="16.397"/>
<path style="fill:#F15424;" d="M383.078,346.726c2.117,0,4.211-0.794,5.814-2.399c1.6-1.6,2.388-3.697,2.388-5.811v-8.187h-16.394
	v8.187c0,2.112,0.786,4.211,2.388,5.811C378.883,345.935,380.974,346.726,383.078,346.726L383.078,346.726z"/>
<path style="fill:#FFD85C;" d="M152.128,138.432c0,42.022-34.056,76.07-76.076,76.07C34.04,214.502,0,180.454,0,138.432
	c0-41.997,34.04-76.065,76.052-76.065C118.072,62.364,152.128,96.433,152.128,138.432z"/>
<path style="fill:#FFCA40;" d="M76.06,198.367c-16.883,0-33.078-7.232-44.452-19.825c-1.193-1.329-1.096-3.361,0.236-4.559
	c1.318-1.19,3.361-1.093,4.552,0.236c10.156,11.249,24.617,17.702,39.665,17.702c29.489,0,53.486-23.992,53.486-53.489
	c0-1.774,1.441-3.228,3.22-3.228c1.782,0,3.226,1.452,3.226,3.228C135.992,171.482,109.105,198.367,76.06,198.367z"/>
<path style="fill:#FFF785;" d="M19.356,141.658c-1.774,0-3.228-1.439-3.228-3.228c0-33.039,26.883-59.932,59.927-59.932
	c1.782,0,3.228,1.441,3.228,3.228c0,1.779-1.444,3.231-3.228,3.231c-29.489,0-53.471,23.985-53.471,53.473
	C22.582,140.219,21.135,141.658,19.356,141.658z"/>
<rect x="41.83" y="206.157" style="fill:#FFBB33;" width="68.436" height="25.091"/>
<rect x="38.042" y="231.245" style="fill:#3E4959;" width="76.032" height="47.462"/>
<g>
	<rect x="34.104" y="236.518" style="fill:#242D3C;" width="83.899" height="5.271"/>
	<rect x="34.104" y="247.04" style="fill:#242D3C;" width="83.899" height="5.276"/>
	<rect x="34.104" y="257.587" style="fill:#242D3C;" width="83.899" height="5.274"/>
	<rect x="34.104" y="268.134" style="fill:#242D3C;" width="83.899" height="5.279"/>
</g>
<rect x="54.653" y="278.707" style="fill:#CCCBCA;" width="42.819" height="18.964"/>
<g>
	<rect x="63.214" y="144.512" style="fill:#FFFFFF;" width="3.236" height="86.735"/>
	<rect x="85.678" y="144.512" style="fill:#FFFFFF;" width="3.228" height="86.735"/>
	<rect x="48.635" y="141.261" style="fill:#FFFFFF;" width="54.853" height="3.231"/>
</g>
<g>
</g>
<g>
</g>
<g>
</g>
<g>
</g>
<g>
</g>
<g>
</g>
<g>
</g>
<g>
</g>
<g>
</g>
<g>
</g>
<g>
</g>
<g>
</g>
<g>
</g>
<g>
</g>
<g>
</g>
</svg>
